<?xml version="1.0" standalone="no"?>
<!DOCTYPE svg PUBLIC "-//W3C//DTD SVG 20010904//EN"
 "http://www.w3.org/TR/2001/REC-SVG-20010904/DTD/svg10.dtd">
<svg version="1.0" xmlns="http://www.w3.org/2000/svg"
 width="260.000000pt" height="174.000000pt" viewBox="0 0 260.000000 174.000000"
 preserveAspectRatio="xMidYMid meet">

<g transform="translate(0.000000,174.000000) scale(0.100000,-0.100000)"
fill="#000000" stroke="none">
<path d="M1410 1550 c-135 -7 -186 -27 -252 -98 -61 -66 -80 -120 -87 -239 -5
-80 -10 -107 -27 -130 -29 -40 -103 -74 -189 -86 -57 -8 -75 -15 -75 -26 0
-30 31 -116 65 -184 19 -38 33 -72 30 -77 -2 -4 -48 -13 -101 -20 -88 -12
-100 -16 -138 -49 -72 -62 -416 -374 -416 -376 0 -2 16 2 35 8 20 6 31 13 25
17 -11 7 33 51 244 240 l148 134 692 93 c380 51 725 97 766 102 41 6 98 13
125 17 28 4 47 4 44 0 -5 -5 -1133 -333 -1624 -472 -67 -19 -93 -30 -79 -34
11 -3 67 -58 123 -123 56 -64 105 -117 109 -117 11 -1 602 293 598 297 -2 2
-137 -62 -300 -141 l-297 -145 -33 37 c-121 135 -164 188 -158 193 4 4 129 41
277 84 149 42 401 115 560 162 298 87 623 176 685 187 28 5 20 -1 -40 -33 -95
-50 -85 -53 14 -4 41 20 72 41 69 46 -3 6 -1 7 6 3 6 -4 46 9 89 30 42 20 97
43 122 51 l45 13 -60 -5 c-33 -3 -208 -25 -390 -49 -181 -24 -331 -43 -333
-41 -2 2 2 22 8 46 13 46 14 170 4 354 l-6 120 168 113 169 112 -250 -2 c-137
-1 -302 -4 -365 -8z m38 -79 c167 -86 161 -324 -10 -395 -135 -57 -288 48
-288 196 1 87 46 160 125 201 42 23 127 21 173 -2z"/>
<path d="M1300 1423 c-8 -3 -30 -19 -48 -36 -102 -97 -33 -267 108 -267 144 0
206 167 100 272 -35 35 -42 38 -91 37 -30 0 -61 -3 -69 -6z"/>
<path d="M2020 720 c-9 -6 -10 -10 -3 -10 6 0 15 5 18 10 8 12 4 12 -15 0z"/>
<path d="M1680 555 c-80 -41 -140 -74 -135 -74 6 0 75 33 155 74 80 41 141 74
135 74 -5 0 -75 -33 -155 -74z"/>
<path d="M1510 470 c-9 -6 -10 -10 -3 -10 6 0 15 5 18 10 8 12 4 12 -15 0z"/>
<path d="M1445 440 c-3 -6 1 -7 9 -4 18 7 21 14 7 14 -6 0 -13 -4 -16 -10z"/>
<path d="M490 350 c-30 -10 -50 -18 -45 -19 6 0 37 8 70 18 33 11 53 19 45 19
-8 1 -40 -7 -70 -18z"/>
<path d="M385 320 c-13 -5 -14 -9 -5 -9 8 0 24 4 35 9 13 5 14 9 5 9 -8 0 -24
-4 -35 -9z"/>
<path d="M315 300 c-13 -5 -14 -9 -5 -9 8 0 24 4 35 9 13 5 14 9 5 9 -8 0 -24
-4 -35 -9z"/>
</g>
</svg>
